<svg version="1.2" xmlns="http://www.w3.org/2000/svg" viewBox="0 0 668 232" width="200" height="69"><style></style><path  d="m107.7 39.7h-15.5v66.4l-46.5-66.4h-15.7v93.3h15.6v-66.4l46.4 66.4h15.7zm68.4 93.3h16.8l-37.4-96-37.1 96h16.8l4-10.8h32.7zm-20.5-56.6l11.3 32.3h-22.6zm148.8-36.7h-15.8l-34 72.6-35.5-72.6h-15.8v93.4h15.6v-58.5l28.5 58.5h14.7l26.7-57.3v57.3h15.6zm83.3 15.7v-15.6h-62.2v93.3h62.2v-15.6h-46.6v-23.3h38.8v-15.5h-38.8v-23.3zm105.6 63.4c-17.1 0-30.9-12.4-30.9-32.4 0-18.8 11.8-32.3 30.9-32.3 8.6 0 16.4 3.4 22 9l11-10.9c-8.4-8.5-20-13.7-33-13.7-27.3 0-46.7 19.8-46.7 47.9 0 29.4 21 48 46.7 48 13 0 24.6-5.2 33-13.6l-11-11c-5.6 5.6-13.4 9-22 9zm80.7-11c19 0 34.6-15.6 34.6-34.7 0-19-15.6-34.6-34.6-34.6-19.1 0-34.7 15.6-34.7 34.6 0 19.1 15.6 34.7 34.7 34.7zm0-53.9c10.6 0 19.2 8.6 19.2 19.2 0 10.7-8.6 19.2-19.2 19.2-10.7 0-19.2-8.5-19.2-19.2 0-10.6 8.5-19.2 19.2-19.2zm30.3 63.7h-61.5v15.5h61.5zm24.2-0.6c-4.6 0-8.3 3.9-8.3 8.6 0 4.5 3.7 8.2 8.3 8.2 4.8 0 8.5-3.7 8.5-8.2 0-4.7-3.7-8.6-8.5-8.6z"/><path  d="m176.1 172.4v-4.3h-17.3v25.9h4.3v-10.8h10.8v-4.3h-10.8v-6.5zm26.2-4.6c-17.1 0-17.1 26.5 0 26.5 17 0 17-26.5 0-26.5zm0 22.4c-11.2 0-11.2-18.2 0-18.2 11.2 0 11.2 18.2 0 18.2zm40.7 3.8h4.7l-5.3-11.5c2.4-0.8 5-2.7 5-6.9 0-7.5-8.6-7.5-8.6-7.5h-8.7v25.9h4.4v-10.8h3.5zm-8.5-21.6h4.3c0 0 4.3 0 4.3 3.2 0 3.3-4.3 3.3-4.3 3.3h-4.3zm51-4.3v25.9h4.4c6.4 0 15.1-1.9 15.1-13 0-11.5-8.8-12.9-15.1-12.9zm4.3 21.6v-17.4c0 0 10.8-1.7 10.8 8.7 0 10.2-10.8 8.7-10.8 8.7zm42.1-22c-17.1 0-17.1 26.6 0 26.6 17 0 17-26.6 0-26.6zm0 22.4c-11.2 0-11.2-18.2 0-18.2 11.2 0 11.2 18.2 0 18.2zm40-0.1c-4.7 0-8.6-3.4-8.6-9 0-5.2 3.3-9 8.6-9 2.4 0 4.6 1 6.1 2.5l3.1-3c-2.4-2.4-5.6-3.8-9.2-3.8-7.6 0-13 5.5-13 13.3 0 8.2 5.9 13.3 13 13.3 3.6 0 6.8-1.4 9.2-3.7l-3.1-3.1c-1.5 1.5-3.7 2.5-6.1 2.5zm36.8-21.9h-15.2v3.9h5.4v22h4.3v-22h5.5zm25.5-0.3c-17 0-17.1 26.6 0 26.6 17.1 0 17-26.6 0-26.6zm0 22.4c-11.2 0-11.2-18.2 0-18.2 11.2 0 11.2 18.2 0 18.2zm40.7 3.8h4.8l-5.3-11.4c2.3-0.9 5-2.7 5-6.9 0-7.6-8.7-7.6-8.7-7.6h-8.6v25.9h4.3v-10.8h3.5zm-8.4-21.6h4.3c0 0 4.3 0 4.3 3.3 0 3.2-4.3 3.2-4.3 3.2h-4.3zm35.2 22c4.2 0 8.1-2.7 8.1-7.7 0-3-1.5-5.7-4.2-6.9-1.9-0.9-3.7-0.9-3.9-0.9-1.9 0-3.8-1.1-3.8-3.3 0-2.4 1.8-3.6 3.8-3.6 2 0 3.6 1 3.7 3.2h4.3c-0.1-4.4-3.5-7.5-8-7.5-4.2 0-8.1 3-8.1 7.9 0 3.1 1.5 5.4 4.2 6.7 1.9 0.8 3.7 0.8 3.9 0.8 1.7 0.1 3.8 1.5 3.8 3.6 0 2.1-1.8 3.3-3.8 3.3-1.9 0-3.7-1-3.8-3.2h-4.3c0.1 4.9 3.6 7.5 8.1 7.6z"/></svg>