<svg width="62" height="60" viewBox="0 0 62 60" fill="none" xmlns="http://www.w3.org/2000/svg">
<path fill-rule="evenodd" clip-rule="evenodd" d="M11.5548 1.51125C10.6908 2.37625 9.98384 3.95125 9.98384 5.01125C9.98384 6.37825 9.28784 6.94025 7.59484 6.94025C6.28084 6.94025 4.14284 7.79925 2.84484 8.84925C0.565836 10.6923 0.472836 11.3243 0.162836 26.9993C-0.325164 51.7043 -0.860165 50.9403 16.9378 50.9403H29.7488L33.6658 54.8573C46.2598 67.4523 66.4758 54.0193 59.6198 37.6113C58.8698 35.8163 56.8448 33.1593 55.1198 31.7083C52.0088 29.0903 51.9838 28.9943 51.9838 19.5283C51.9838 10.4533 51.8618 9.90625 49.4838 8.34825C48.1088 7.44725 46.9838 5.93125 46.9838 4.98025C46.9838 2.28325 43.5148 -0.249747 40.3218 0.115253C38.2588 0.351253 37.0738 1.32225 35.9838 3.66825C34.5128 6.83525 34.3558 6.89725 27.7338 6.91825C21.7268 6.93825 20.9838 6.72825 20.9838 5.01125C20.9838 0.586253 14.7828 -1.71575 11.5548 1.51125ZM16.7938 8.26725C17.0298 11.0613 16.7308 11.9403 15.5438 11.9403C14.3848 11.9403 13.9838 10.8903 13.9838 7.85725C13.9838 2.64625 16.3488 2.99225 16.7938 8.26725ZM42.7938 8.26725C43.0598 11.4103 42.8068 11.9403 41.0438 11.9403C39.5318 11.9403 38.9838 11.2973 38.9838 9.52225C38.9838 3.22425 42.2768 2.14025 42.7938 8.26725ZM9.98384 13.4403C9.98384 15.8043 10.2838 15.9403 15.4838 15.9403C20.6838 15.9403 20.9838 15.8043 20.9838 13.4403C20.9838 11.0143 21.1888 10.9403 27.9138 10.9403C34.3398 10.9403 34.8678 11.1043 35.1638 13.1903C35.4468 15.1793 36.1418 15.4753 41.1578 15.7383C46.3928 16.0123 46.8658 15.8573 47.2718 13.7383C47.5138 12.4743 47.7728 15.0943 47.8478 19.5603L47.9838 27.6803L43.3698 28.2003C35.6338 29.0723 30.1158 34.5903 29.2438 42.3263L28.7238 46.9403H17.5538C10.1998 46.9403 5.97384 46.5303 5.18384 45.7403C3.65784 44.2143 3.51484 15.6843 5.01884 12.8743C6.57884 9.96125 9.98384 10.3493 9.98384 13.4403ZM8.98384 21.9403C8.98384 23.8623 9.65084 23.9403 25.9838 23.9403C42.3168 23.9403 42.9838 23.8623 42.9838 21.9403C42.9838 20.0183 42.3168 19.9403 25.9838 19.9403C9.65084 19.9403 8.98384 20.0183 8.98384 21.9403ZM8.98384 29.9403C8.98384 31.8293 9.65084 31.9403 20.9838 31.9403C32.3168 31.9403 32.9838 31.8293 32.9838 29.9403C32.9838 28.0513 32.3168 27.9403 20.9838 27.9403C9.65084 27.9403 8.98384 28.0513 8.98384 29.9403ZM50.0778 33.4893C53.6098 35.3153 56.9768 40.4153 56.9768 43.9403C56.9768 49.5193 50.4448 55.9453 44.7838 55.9363C39.4868 55.9283 32.9838 49.3173 32.9838 43.9403C32.9838 38.5633 39.4868 31.9523 44.7838 31.9443C46.0478 31.9423 48.4308 32.6373 50.0778 33.4893ZM43.6718 33.5863C43.2928 33.9643 42.9838 36.8143 42.9838 39.9203C42.9838 44.8003 43.3638 45.9303 45.7888 48.2533C47.3308 49.7313 49.3558 50.9403 50.2888 50.9403C52.7858 50.9403 52.3688 47.6503 49.5338 44.9873C47.7668 43.3273 46.9998 41.4163 46.7838 38.1403C46.5018 33.8723 45.2368 32.0203 43.6718 33.5863ZM8.98384 37.9403C8.98384 39.7923 9.65084 39.9403 17.9838 39.9403C26.3168 39.9403 26.9838 39.7923 26.9838 37.9403C26.9838 36.0883 26.3168 35.9403 17.9838 35.9403C9.65084 35.9403 8.98384 36.0883 8.98384 37.9403Z" fill="#45B3E0"/>
</svg>
