<svg width="64" height="64" viewBox="0 0 64 64" fill="none" xmlns="http://www.w3.org/2000/svg">
<path fill-rule="evenodd" clip-rule="evenodd" d="M16.19 2.05086C12.688 4.18586 10 9.20386 10 13.6069C10 17.6009 13.921 23.7599 17.565 25.4889C24.48 28.7699 32.252 26.4789 35.836 20.1029C38.364 15.6059 38.555 12.2879 36.56 7.51486C33.642 0.530862 23.253 -2.25614 16.19 2.05086ZM31.25 7.03786C35.069 11.2289 35.003 16.1759 31.077 20.1019C22.415 28.7639 8.59 17.1719 16.138 7.57686C20.386 2.17686 26.618 1.95486 31.25 7.03786ZM3.4 35.4249C0.0600002 38.7649 0 38.9779 0 47.4249V56.0249H9.5C17.278 56.0249 19 55.7529 19 54.5249C19 53.3169 17.444 53.0249 11 53.0249H3V47.9749C3 41.9339 4.903 37.8459 8.472 36.2199C12.368 34.4449 36.774 34.6809 40 36.5249C41.375 37.3109 43.063 37.9699 43.75 37.9899C45.789 38.0469 45.174 35.2599 42.777 33.5819C40.979 32.3219 37.334 32.0249 23.677 32.0249H6.8L3.4 35.4249ZM41.903 50.1109L38.564 58.1979L36.585 54.1109C34.638 50.0919 34.519 50.0249 29.303 50.0249C24.667 50.0249 24 50.2759 24 52.0249C24 53.6899 24.667 54.0249 27.983 54.0249C31.765 54.0249 32.096 54.2809 34.532 59.0889C37.975 65.8829 39.604 65.3419 43.608 56.0749L46.825 48.6319L50.127 55.3289L53.429 62.0249H58.715C63.333 62.0249 64 61.7729 64 60.0249C64 58.3589 63.333 58.0249 60.011 58.0249C56.027 58.0249 56.018 58.0159 52 50.0249C49.788 45.6249 47.362 42.0249 46.61 42.0249C45.84 42.0249 43.781 45.5639 41.903 50.1109Z" fill="#FFC207"/>
</svg>
